<!-- Generated by scripts/render-icon-fallbacks.mjs from virtual.json, frame 109. Do not edit. renderer-version:2 source-sha256:c0d42c7cc583c0b2a8a9a7d4d92d228987deb45ed5cbe50f7fdc56aa08184536 -->
<svg xmlns="http://www.w3.org/2000/svg" viewBox="0 0 430 430"><defs><clipPath id="icon-virtual-1"><rect width="430" height="430" x="0" y="0"></rect></clipPath><clipPath id="icon-virtual-2"><path d="M0,0 L430,0 L430,430 L0,430z"></path></clipPath></defs><g clip-path="url(#icon-virtual-1)"><g clip-path="url(#icon-virtual-2)" transform="matrix(1,0,0,1,0,0)" opacity="1" style="display: block;"><g transform="matrix(1,0,0,1,215,215)" opacity="1" style="display: block;"><g opacity="1" transform="matrix(1,0,0,1,0,0)"><path stroke-linecap="round" stroke-linejoin="round" fill-opacity="0" class="secondary" stroke="rgb(170,42,58)" stroke-opacity="1" stroke-width="12" d="M0 0"></path></g></g><g transform="matrix(3.4999940395355225,-0.006433865986764431,0.006433865986764431,3.4999940395355225,214.676513671875,197.5002899169922)" opacity="1" style="display: block;"><g opacity="1" transform="matrix(1,0,0,1,0,0)"><path stroke-linecap="round" stroke-linejoin="round" fill-opacity="0" class="primary" stroke="rgb(255,255,255)" stroke-opacity="1" stroke-width="3.4" d=" M-31.66900062561035,6.4679999351501465 C-32.74599838256836,3.134999990463257 -33.37699890136719,-0.4090000092983246 -33.37699890136719,-4.105000019073486 C-33.37699890136719,-23.266000747680664 -17.226999282836914,-38.65599822998047 2.2149999141693115,-37.40399932861328 C18.697999954223633,-36.34299850463867 32.097999572753906,-23.040000915527344 33.28499984741211,-6.565999984741211 C33.595001220703125,-2.2660000324249268 33.04999923706055,1.8650000095367432 31.902000427246094,5.71999979019165 C26.54400062561035,23.707000732421875 0.003000000026077032,50.20000076293945 0.003000000026077032,50.20000076293945 C0.003000000026077032,50.20000076293945 -24.979000091552734,27.166000366210938 -31.66900062561035,6.4679999351501465z"></path></g></g><g transform="matrix(3.4999940395355225,-0.006433865986764431,0.006433865986764431,3.4999940395355225,214.676513671875,197.5002899169922)" opacity="1" style="display: block;"><g opacity="1" transform="matrix(1,0,0,1,0,0)"><path stroke-linecap="round" stroke-linejoin="round" fill-opacity="0" class="secondary" stroke="rgb(170,42,58)" stroke-opacity="1" stroke-width="3.4" d=" M15.704000473022461,-4.103000164031982 C15.704000473022461,4.570000171661377 8.67300033569336,11.600000381469727 0,11.600000381469727 C-8.67300033569336,11.600000381469727 -15.704000473022461,4.570000171661377 -15.704000473022461,-4.103000164031982 C-15.704000473022461,-12.776000022888184 -8.67300033569336,-19.80699920654297 0,-19.80699920654297 C8.67300033569336,-19.80699920654297 15.704000473022461,-12.776000022888184 15.704000473022461,-4.103000164031982z"></path></g></g></g></g></svg>
